<?xml version="1.0" standalone="no"?>
<!DOCTYPE svg PUBLIC "-//W3C//DTD SVG 20010904//EN"
 "http://www.w3.org/TR/2001/REC-SVG-20010904/DTD/svg10.dtd">
<svg version="1.0" xmlns="http://www.w3.org/2000/svg"
 width="1920.000000pt" height="1152.000000pt" viewBox="0 0 1920.000000 1152.000000"
 preserveAspectRatio="xMidYMid meet">

<g transform="translate(0.000000,1152.000000) scale(0.100000,-0.100000)"
fill="#000000" stroke="none">
<path d="M4353 7293 c-10 -3 -13 -51 -13 -189 l0 -185 73 5 c39 3 495 8 1012
11 517 3 1460 10 2095 15 635 5 1711 14 2390 20 1505 12 2254 18 3640 30 586
6 1120 10 1188 10 l122 0 0 85 0 85 -199 0 c-109 0 -558 4 -997 10 -929 11
-2238 26 -3499 40 -489 5 -1088 12 -1330 15 -242 3 -854 10 -1360 15 -506 5
-1068 12 -1250 15 -181 3 -649 7 -1040 10 -390 3 -735 7 -765 10 -30 2 -61 1
-67 -2z"/>
<path d="M12856 6934 c-432 -67 -802 -372 -950 -781 -92 -259 -94 -546 -4
-803 127 -360 414 -640 779 -755 654 -206 1350 184 1526 855 34 127 43 362 20
495 -114 648 -725 1090 -1371 989z m417 -134 c390 -85 709 -393 814 -785 24
-90 27 -117 27 -270 0 -153 -3 -180 -27 -270 -176 -657 -896 -997 -1503 -711
-603 285 -810 1020 -445 1578 167 256 463 440 771 477 100 13 255 4 363 -19z"/>
<path d="M12905 6692 c-77 -9 -218 -53 -298 -93 -182 -93 -361 -281 -442 -464
-29 -65 -67 -196 -60 -203 6 -6 229 26 344 49 51 10 113 28 138 39 102 45 212
202 281 400 28 81 77 270 70 274 -2 1 -16 0 -33 -2z"/>
<path d="M13039 6558 c-85 -341 -219 -563 -392 -648 -72 -35 -219 -68 -431
-95 l-139 -18 7 -93 c9 -131 15 -153 40 -159 11 -2 109 -9 216 -14 345 -17
499 9 662 116 106 70 196 180 275 338 73 147 239 577 229 594 -19 30 -250 103
-366 116 l-66 7 -35 -144z"/>
<path d="M13615 6488 c-28 -82 -105 -284 -140 -369 -101 -246 -181 -379 -301
-496 -67 -65 -102 -91 -176 -128 -142 -69 -221 -87 -428 -92 -96 -2 -231 0
-300 5 -69 5 -127 7 -129 6 -4 -4 75 -163 93 -187 12 -15 41 -21 148 -33 204
-22 494 -29 636 -15 226 22 313 58 445 181 189 177 282 350 382 709 l37 131
-23 38 c-40 66 -105 146 -167 205 -64 61 -70 64 -77 45z"/>
<path d="M13915 5872 c-47 -149 -113 -290 -184 -396 -94 -139 -248 -285 -360
-341 -146 -74 -414 -105 -747 -86 -115 7 -220 14 -234 17 -41 9 68 -89 159
-142 169 -99 330 -139 526 -132 244 10 443 92 618 257 195 184 299 424 300
691 0 97 -19 246 -32 254 -3 2 -24 -53 -46 -122z"/>
<path d="M9295 6807 c-22 -19 -28 -35 -36 -102 -16 -136 -167 -866 -288 -1395
-22 -97 -45 -207 -50 -245 -9 -64 -8 -74 13 -120 32 -68 106 -149 161 -175 38
-19 50 -20 79 -10 60 19 126 104 261 330 195 327 345 500 434 500 47 0 40 -69
-39 -398 -59 -246 -69 -331 -47 -385 32 -77 115 -71 198 14 56 58 144 228 189
368 46 142 82 347 84 476 1 109 0 112 -36 185 -20 41 -61 105 -92 141 -113
137 -198 140 -355 9 -121 -101 -294 -333 -410 -550 -28 -52 -51 -90 -51 -85 0
6 30 107 66 225 107 354 161 551 194 708 34 166 37 221 15 281 -29 84 -122
198 -187 232 -48 25 -71 24 -103 -4z"/>
<path d="M6015 6655 c-206 -45 -458 -175 -596 -308 -59 -57 -91 -120 -110
-221 -29 -157 -14 -182 301 -501 144 -146 253 -266 264 -287 16 -36 16 -40 0
-73 -34 -73 -227 -189 -335 -201 -105 -12 -187 25 -329 147 -116 99 -167 119
-217 84 -27 -19 -47 -107 -37 -162 17 -96 118 -223 227 -287 26 -16 80 -40
120 -54 67 -24 84 -26 247 -26 166 -1 179 1 255 27 119 42 219 103 299 182
187 185 193 405 18 636 -68 89 -115 136 -282 280 -162 140 -182 166 -160 206
33 57 247 149 494 212 171 44 202 58 212 95 9 36 -21 125 -60 177 -63 85 -159
108 -311 74z"/>
<path d="M10775 6611 c-17 -10 -44 -33 -59 -52 -64 -75 -73 -149 -28 -220 37
-57 132 -146 177 -164 105 -45 206 26 191 133 -11 79 -128 286 -176 312 -29
15 -72 12 -105 -9z"/>
<path d="M6774 6081 c-68 -41 -133 -148 -208 -342 -79 -206 -136 -430 -151
-601 -11 -116 8 -163 104 -259 79 -79 131 -112 194 -124 84 -16 229 95 378
290 l61 80 -8 -55 c-5 -30 -9 -99 -9 -152 0 -88 2 -99 24 -122 53 -56 139 -55
181 3 17 25 318 913 335 989 9 41 -20 116 -71 189 -53 74 -99 112 -147 120
-46 7 -77 -23 -102 -98 -88 -267 -312 -654 -479 -826 -56 -57 -88 -83 -104
-83 -23 0 -23 2 -16 58 14 115 61 251 214 607 28 66 43 114 42 141 -1 98 -101
204 -192 204 -8 0 -29 -9 -46 -19z"/>
<path d="M8474 6085 c-84 -18 -195 -71 -316 -150 -349 -229 -351 -383 -8 -615
128 -87 210 -168 210 -209 0 -44 -27 -54 -160 -59 -139 -5 -225 11 -335 62
-88 41 -126 45 -154 17 -55 -55 -31 -153 55 -230 110 -98 245 -144 424 -144
184 -1 316 46 435 155 76 69 95 107 95 185 0 122 -86 240 -254 350 -151 99
-186 129 -186 162 0 47 60 88 179 122 89 26 151 24 248 -7 78 -25 84 -25 108
-10 56 37 14 171 -87 282 -82 89 -148 112 -254 89z"/>
<path d="M10661 6076 c-32 -33 -56 -118 -106 -371 -24 -121 -66 -318 -94 -437
-87 -369 -88 -413 -16 -477 30 -26 44 -31 88 -31 60 0 89 16 114 63 19 38 119
354 210 667 55 189 66 238 67 305 1 70 -3 87 -28 135 -42 81 -81 126 -129 149
-56 27 -78 26 -106 -3z"/>
<path d="M4344 4587 c-2 -7 -3 -91 -2 -186 l3 -173 644 1 c355 1 648 4 652 6
3 3 278 5 610 6 332 1 984 5 1449 10 838 7 2423 21 4735 39 660 5 1476 12
1813 16 l612 6 0 83 0 82 -612 7 c-337 3 -995 11 -1463 16 -791 9 -2196 25
-4420 50 -506 6 -1284 15 -1730 20 -445 5 -1118 12 -1495 15 -377 3 -709 8
-738 10 -37 4 -54 2 -58 -8z"/>
</g>
</svg>
